<svg width="359" height="201" fill="none" xmlns="http://www.w3.org/2000/svg"><circle cx="100.143" cy="100.458" r="100" fill="#2C6269"/><path fill-rule="evenodd" clip-rule="evenodd" d="M258.143 200.458c55.228 0 100-44.772 100-100 0-55.229-44.772-100-100-100-55.229 0-100 44.771-100 100 0 55.228 44.771 100 100 100Zm0-67c18.225 0 33-14.775 33-33 0-18.226-14.775-33-33-33-18.226 0-33 14.774-33 33 0 18.225 14.774 33 33 33Z" fill="#012F34"/><path fill="#79C8C7" d="M358.143 43.458h-43v-43h43z"/><path fill-rule="evenodd" clip-rule="evenodd" d="M233.656 200.458c55.229 0 100-44.772 100-100 0-55.229-44.771-100-100-100-55.228 0-100 44.771-100 100 0 55.228 44.772 100 100 100Zm0-67c18.226 0 33-14.775 33-33 0-18.226-14.774-33-33-33-18.225 0-33 14.774-33 33 0 18.225 14.775 33 33 33Z" fill="#F67E7E"/><path fill-rule="evenodd" clip-rule="evenodd" d="M100.143.458h-100v4h100v-4Zm0 8h-100v4h100v-4Zm-100 8h100v4h-100v-4Zm100 8h-100v4h100v-4Zm-100 8h100v4h-100v-4Zm100 8h-100v4h100v-4Z" fill="#79C8C7"/></svg>