<svg width="201" height="244" fill="none" xmlns="http://www.w3.org/2000/svg"><path fill="#2C6269" d="M100.5 144H.5V44h100z"/><path fill-rule="evenodd" clip-rule="evenodd" d="M100.5 244c55.228 0 100-44.772 100-100s-44.772-100-100-100S.5 88.772.5 144s44.772 100 100 100Zm0-67c18.225 0 33-14.775 33-33s-14.775-33-33-33-33 14.775-33 33 14.775 33 33 33Z" fill="#014E56"/><path fill-rule="evenodd" clip-rule="evenodd" d="M100.5 144H.5v4h100v-4Zm0 8H.5v4h100v-4Zm-100 8h100v4H.5v-4Zm100 8H.5v4h100v-4Zm-100 8h100v4H.5v-4Zm100 8H.5v4h100v-4ZM.5 0h4v4h-4V0Zm11 0h-4v4h4V0Zm0 8h-4v4h4V8Zm-4 8h4v4h-4v-4Zm4 8h-4v4h4v-4Zm-4 8h4v4h-4v-4Zm4 8h-4v4h4v-4Zm3-40h4v4h-4V0Zm0 8h4v4h-4V8Zm4 8h-4v4h4v-4Zm-4 8h4v4h-4v-4Zm4 8h-4v4h4v-4Zm-4 8h4v4h-4v-4ZM.5 8h4v4h-4V8Zm21-8h4v4h-4V0Zm0 8h4v4h-4V8Zm4 8h-4v4h4v-4Zm-4 8h4v4h-4v-4Zm4 8h-4v4h4v-4Zm-4 8h4v4h-4v-4ZM.5 16h4v4h-4v-4Zm28-16h4v4h-4V0Zm0 8h4v4h-4V8Zm4 8h-4v4h4v-4Zm-4 8h4v4h-4v-4Zm4 8h-4v4h4v-4Zm-4 8h4v4h-4v-4ZM.5 24h4v4h-4v-4Zm35-24h4v4h-4V0Zm0 8h4v4h-4V8Zm4 8h-4v4h4v-4Zm-4 8h4v4h-4v-4Zm4 8h-4v4h4v-4Zm-4 8h4v4h-4v-4Zm-35-8h4v4h-4v-4Zm42-32h4v4h-4V0Zm0 8h4v4h-4V8Zm4 8h-4v4h4v-4Zm-4 8h4v4h-4v-4Zm4 8h-4v4h4v-4Zm-4 8h4v4h-4v-4Zm-42 0h4v4h-4v-4Zm49-40h4v4h-4V0Zm0 8h4v4h-4V8Zm4 8h-4v4h4v-4Zm-4 8h4v4h-4v-4Zm4 8h-4v4h4v-4Zm-4 8h4v4h-4v-4Z" fill="#79C8C7"/></svg>