<svg width="67" height="57" fill="none" xmlns="http://www.w3.org/2000/svg"><path fill-rule="evenodd" clip-rule="evenodd" d="M26.463 52.165c-2.822 2.645-6.552 3.967-11.19 3.967-4.738 0-8.468-1.475-11.19-4.425C1.36 48.757 0 44.587 0 39.195c0-3.662.857-7.833 2.57-12.512 1.715-4.68 4.008-9.36 6.881-14.038 2.873-4.68 6.175-8.85 9.905-12.513H31c-1.714 4.07-3.024 7.782-3.932 11.14-.907 3.356-1.36 6.408-1.36 9.155 0 3.153.403 5.849 1.21 8.087a197.371 197.371 0 0 0 2.494 6.561c.857 2.136 1.286 4.68 1.286 7.63 0 3.662-1.412 6.815-4.235 9.46Zm36 0c-2.822 2.645-6.552 3.967-11.19 3.967-4.738 0-8.468-1.475-11.19-4.425C37.36 48.757 36 44.587 36 39.195c0-3.662.857-7.833 2.57-12.512 1.715-4.68 4.008-9.36 6.881-14.038 2.873-4.68 6.175-8.85 9.905-12.513H67c-1.714 4.07-3.024 7.782-3.932 11.14-.907 3.356-1.36 6.408-1.36 9.155 0 3.153.403 5.849 1.21 8.087a197.371 197.371 0 0 0 2.494 6.561c.857 2.136 1.286 4.68 1.286 7.63 0 3.662-1.412 6.815-4.235 9.46Z" fill="#2C6269"/></svg>